<?xml version="1.0" encoding="UTF-8"?>
<svg width="91px" height="96px" viewBox="0 0 91 96" version="1.1" xmlns="http://www.w3.org/2000/svg" xmlns:xlink="http://www.w3.org/1999/xlink">
    <!-- Generator: Sketch 45.2 (43514) - http://www.bohemiancoding.com/sketch -->
    <title>Group 3</title>
    <desc>Created with Sketch.</desc>
    <defs>
        <linearGradient x1="0.25781251%" y1="49.7500002%" x2="101.257813%" y2="49.7500002%" id="linearGradient-1">
            <stop stop-color="#66B9EA" offset="0%"></stop>
            <stop stop-color="#36D7B7" offset="48.1206154%"></stop>
            <stop stop-color="#33CC66" offset="100%"></stop>
        </linearGradient>
    </defs>
    <g id="Page-1" stroke="none" stroke-width="1" fill="none" fill-rule="evenodd">
        <g id="Mobile---relance-invitation-Copy" transform="translate(-142.000000, -147.000000)" fill-rule="nonzero">
            <g id="Group-4">
                <g id="Group-3" transform="translate(142.000000, 147.000000)">
                    <path d="M48.0144,60.7824 C49.68,60.6528 51.1984,59.8032 52.184,58.448 L67.1648,37.7376 C67.624,37.1024 67.5552,36.2256 66.9984,35.6688 C66.4416,35.1136 65.5648,35.0448 64.9296,35.5024 L44.216,50.488 C42.8656,51.4704 42.016,52.9888 41.8864,54.6544 C41.7568,56.32 42.36,57.9504 43.5392,59.1296 C44.6128,60.2048 46.0608,60.8 47.5664,60.8 C47.7152,60.8 47.864,60.7936 48.0144,60.7824 Z M45.0768,54.904 C45.1328,54.1728 45.5072,53.5056 46.096,53.0768 L58.7312,43.936 L49.5936,56.568 C49.1616,57.1616 48.4944,57.5344 47.7632,57.592 C47.0352,57.64 46.32,57.3872 45.8,56.8672 C45.2848,56.3504 45.0192,55.6336 45.0768,54.904 Z M32.2688,22.4 C33.1536,22.4 33.8688,23.1152 33.8688,24 C33.8688,24.8848 33.1536,25.6 32.2688,25.6 L24.2688,25.6 C23.384,25.6 22.6688,24.8848 22.6688,24 C22.6688,23.1152 23.384,22.4 24.2688,22.4 L32.2688,22.4 Z M32.2688,33.6 C33.1536,33.6 33.8688,34.3152 33.8688,35.2 C33.8688,36.0848 33.1536,36.8 32.2688,36.8 L16.2688,36.8 C15.384,36.8 14.6688,36.0848 14.6688,35.2 C14.6688,34.3152 15.384,33.6 16.2688,33.6 L32.2688,33.6 Z M32.2688,44.8 C33.1536,44.8 33.8688,45.5152 33.8688,46.4 C33.8688,47.2848 33.1536,48 32.2688,48 L8.2688,48 C7.384,48 6.6688,47.2848 6.6688,46.4 C6.6688,45.5152 7.384,44.8 8.2688,44.8 L32.2688,44.8 Z M32.2688,56 C33.1536,56 33.8688,56.7152 33.8688,57.6 C33.8688,58.4848 33.1536,59.2 32.2688,59.2 L1.8688,59.2 C0.984,59.2 0.2688,58.4848 0.2688,57.6 C0.2688,56.7152 0.984,56 1.8688,56 L32.2688,56 Z M32.2688,67.2 C33.1536,67.2 33.8688,67.9152 33.8688,68.8 C33.8688,69.6848 33.1536,70.4 32.2688,70.4 L11.4688,70.4 C10.584,70.4 9.8688,69.6848 9.8688,68.8 C9.8688,67.9152 10.584,67.2 11.4688,67.2 L32.2688,67.2 Z M32.2688,78.4 C33.1536,78.4 33.8688,79.1152 33.8688,80 C33.8688,80.8848 33.1536,81.6 32.2688,81.6 L21.0688,81.6 C20.184,81.6 19.4688,80.8848 19.4688,80 C19.4688,79.1152 20.184,78.4 21.0688,78.4 L32.2688,78.4 Z" id="Combined-Shape" fill="url(#linearGradient-1)"></path>
                    <path d="M83.8544,31.3024 C83.8384,31.2688 83.8384,31.2336 83.8208,31.2 C83.8016,31.168 83.7712,31.1504 83.7504,31.12 C82.1328,28.3456 80.2192,25.7648 78.0464,23.4256 L81.4832,19.9904 L83.7456,22.2528 L90.5328,15.464 L83.7456,8.6768 L76.9568,15.464 L79.2208,17.728 L75.784,21.1632 C73.4448,18.9904 70.8656,17.0752 68.0896,15.4576 C68.0592,15.4368 68.0416,15.4064 68.0096,15.3872 C67.976,15.368 67.9408,15.3696 67.9072,15.352 C62.9584,12.5008 57.3984,10.6016 51.4704,9.9056 L51.4704,8 L53.8704,8 C56.0768,8 57.8704,6.2064 57.8704,4 C57.8704,1.7936 56.0752,0 53.8688,0 L39.4688,0 C37.2624,0 35.4688,1.7936 35.4688,4 C35.4688,6.2064 37.2624,8 39.4688,8 L41.8688,8 L41.8688,9.8496 C40.1408,10.0336 38.416,10.3152 36.7104,10.7056 C35.8496,10.9024 35.3104,11.7616 35.5088,12.6224 C35.7056,13.4832 36.5648,14.024 37.4256,13.824 C38.8976,13.4864 40.384,13.232 41.8736,13.0608 L43.5904,12.928 C44.1152,12.888 44.5984,12.8592 45.0688,12.8368 L45.0688,16 C45.0688,16.8848 45.784,17.6 46.6688,17.6 C47.5536,17.6 48.2688,16.8848 48.2688,16 L48.2688,12.848 C54.2864,13.1248 59.9568,14.7408 64.9984,17.4 L63.4208,20.1312 C62.9792,20.8976 63.2416,21.8752 64.0064,22.3168 C64.2576,22.4624 64.5328,22.5312 64.8048,22.5312 C65.3584,22.5312 65.896,22.2448 66.192,21.7312 L67.7648,19.0064 C72.7712,22.1824 77.024,26.4352 80.2,31.4416 L77.4752,33.0144 C76.712,33.456 76.4496,34.4336 76.8928,35.2 C77.1904,35.7136 77.7264,36 78.28,36 C78.552,36 78.8272,35.9312 79.0784,35.7856 L81.8096,34.208 C84.5056,39.3216 86.1264,45.0848 86.368,51.1984 L83.208,51.1984 C82.3232,51.1984 81.608,51.9136 81.608,52.7984 C81.608,53.6832 82.3232,54.3984 83.208,54.3984 L86.368,54.3984 C86.1264,60.512 84.5056,66.2752 81.8096,71.3888 L79.0784,69.8112 C78.3136,69.3696 77.3344,69.6288 76.8928,70.3968 C76.4512,71.1632 76.7136,72.1408 77.4784,72.5824 L80.2032,74.1552 C77.0272,79.1616 72.7744,83.4144 67.768,86.5904 L66.1952,83.8656 C65.752,83.0976 64.7712,82.8368 64.0096,83.28 C63.2432,83.7216 62.9808,84.7008 63.424,85.4656 L65.0016,88.1968 C59.96,90.856 54.2896,92.472 48.272,92.7488 L48.272,89.6 C48.272,88.7152 47.5568,88 46.672,88 C45.7872,88 45.072,88.7152 45.072,89.6 L45.072,92.7616 C42.5168,92.6736 39.9536,92.3536 37.4304,91.7744 C36.5696,91.568 35.7104,92.1152 35.5136,92.976 C35.3152,93.8368 35.8544,94.696 36.7152,94.8928 C39.9088,95.6288 43.1712,96 46.408,96 C46.4864,96 46.5616,95.9952 46.64,95.9936 C46.6512,95.9936 46.6592,96 46.6688,96 C46.6816,96 46.6928,95.992 46.7056,95.992 C54.3968,95.9392 61.6128,93.8624 67.856,90.2752 C67.9056,90.2528 67.9584,90.2416 68.0064,90.2128 C68.0384,90.1936 68.056,90.1632 68.0864,90.1424 C74.5488,86.376 79.9488,80.9824 83.7232,74.5248 C83.7536,74.4816 83.792,74.448 83.8192,74.4 C83.8384,74.3664 83.8368,74.3312 83.8528,74.2976 C87.5072,67.9616 89.608,60.624 89.608,52.8 C89.608,44.976 87.5072,37.6384 83.8544,31.3024 Z M83.744,13.2016 L86.0064,15.464 L83.744,17.728 L81.48,15.464 L83.744,13.2016 Z M45.0688,9.6336 L45.0688,4.8 L39.4688,4.8 C39.0288,4.8 38.6688,4.44 38.6688,4 C38.6688,3.56 39.0288,3.2 39.4688,3.2 L53.8688,3.2 C54.3088,3.2 54.6688,3.56 54.6688,4 C54.6688,4.44 54.3088,4.8 53.8688,4.8 L48.2688,4.8 L48.2688,9.6336 C47.712,9.6112 47.1808,9.6 46.6688,9.6 C46.624,9.6 46.5728,9.6032 46.528,9.6032 C46.488,9.6032 46.448,9.6 46.408,9.6 C46.1456,9.6 45.8832,9.6176 45.6208,9.6224 C45.4352,9.6272 45.2608,9.6256 45.0688,9.6336 Z" id="Shape" fill="#BABABA"></path>
                </g>
            </g>
        </g>
    </g>
</svg>